PathFileType	4	(X/Y/Z)	Patient5_TMGait_0pt45_1_right_11.trc.trc
DataRate	CameraRate	NumFrames	NumMarkers	Units	OrigDataRate	OrigDataStartFrame	OrigNumFrames
64.814814814815	64.814814814815	4	32	mm	64.814814814815	124	       141
Frame#	Time	R.ASIS			L.ASIS			Chest			R.Shoulder			Neck			L.Shoulder			L.Elbow			L.Wrist			R.Elbow			R.Wrist			L.Thigh.Superior			L.Thigh.Lateral			L.Thigh.Inferior			L.Patella			L.Shank.Superior			L.Shank.Lateral			L.Shank.Inferior			L.Heel			L.Midfoot.Lateral			L.Midfoot.Superior			L.Toe			R.Thigh.Superior			R.Thigh.Lateral			R.Thigh.Inferior			R.Patella			R.Shank.Superior			R.Shank.Lateral			R.Shank.Inferior			R.Heel			R.Midfoot.Lateral			R.Midfoot.Superior			R.Toe			
		X1	Y1	Z1	X2	Y2	Z2	X3	Y3	Z3	X4	Y4	Z4	X5	Y5	Z5	X6	Y6	Z6	X7	Y7	Z7	X8	Y8	Z8	X9	Y9	Z9	X10	Y10	Z10	X11	Y11	Z11	X12	Y12	Z12	X13	Y13	Z13	X14	Y14	Z14	X15	Y15	Z15	X16	Y16	Z16	X17	Y17	Z17	X18	Y18	Z18	X19	Y19	Z19	X20	Y20	Z20	X21	Y21	Z21	X22	Y22	Z22	X23	Y23	Z23	X24	Y24	Z24	X25	Y25	Z25	X26	Y26	Z26	X27	Y27	Z27	X28	Y28	Z28	X29	Y29	Z29	X30	Y30	Z30	X31	Y31	Z31	X32	Y32	Z32	

124	19.967714285714	1039.186850468866	982.160330772395	543.292854715518	1033.047109674319	950.184810124227	300.938002630198	1079.686923519929	1433.486593179150	445.633382144447	960.791654581459	1489.018981697923	603.150796685436	955.075276745265	1553.824860372673	419.550121605908	1040.703903715120	1504.643632307862	246.742807723297	1042.740556877574	1180.745534836385	109.519843247349	1178.052983060137	931.188544812746	171.447284734401	865.083178746416	1169.689497075997	733.903187342381	1084.190629605354	985.869912142736	681.240232519439	1017.441076854150	722.438808981784	306.436758256685	928.512041357883	665.106190508043	264.703991750458	981.688206681719	596.307135610805	331.780058482669	949.926877119734	481.570381662360	338.983082619337	884.092775805180	390.737628483092	360.722241178731	807.681018636986	333.861444479913	282.008866892644	828.699243933480	276.241876300787	371.110441294041	657.790571619895	56.039229666095	370.512758142462	746.573750091094	30.758528259488	312.045169992943	843.285643075011	88.785020769356	356.863219285787	949.699665411649	44.181266810899	362.359363203392	1080.976898444785	755.429711343185	574.493321208513	1007.244240786760	669.837622817296	629.527622325813	1096.488830146304	626.198889769187	559.567925982436	1112.185998669101	531.154756232467	596.368270392370	1083.931494482424	427.875980180356	561.717516797078	1013.275127626758	355.235396100688	640.328858170733	1082.071281128340	287.776625975029	566.537344097659	985.796725121619	57.744773185916	536.991359879373	1062.019820312273	25.863811202249	612.271101479790	1165.546464240374	95.770725058470	601.148247660683	1270.610034145629	56.121250956852	602.791426221006	
125	19.983142857143	1039.378988398671	979.579923459517	545.816253895536	1032.991305613692	949.244705048015	303.544433666570	1079.470044866514	1432.538776362065	448.688110365020	961.508606541028	1487.626547845544	607.101583911637	954.179816686433	1552.588305033996	423.439058113145	1038.563063907540	1503.596972708221	249.810297092763	1036.813409847081	1180.374623590704	110.854201569998	1169.641006737963	928.636546572601	169.430626748617	868.546210943633	1167.335821185148	737.661200414560	1088.301843050640	984.874793346261	683.139554079370	1016.406365931893	721.649628285950	307.748751889260	927.071545454294	664.770191639632	266.249155315974	980.480144213872	595.421895716131	332.439147470933	947.703490451671	479.985257638565	339.006698904591	880.852157440815	389.960463663920	360.666401123055	803.010396419822	334.645229038841	282.047170591288	824.128963785901	276.116371244308	370.854589139361	650.960550539142	56.968752683007	369.965952659847	739.699686418878	30.962945730096	311.772432992226	836.640711624519	88.991346878041	356.263091182449	942.599693233919	44.195783093713	362.319622568737	1078.698657870977	752.373042879429	576.011483973138	1003.449060540605	667.002154072808	629.917229028271	1092.367109344515	622.875869050307	559.853972755601	1106.799885135595	527.509615133896	595.626901505134	1078.085456918308	424.862375325805	560.244702646408	1007.443823509787	352.228782661511	638.673558426192	1075.782806327668	284.808868905400	564.362292329997	978.304647174689	55.419016969396	534.258438746323	1053.985370296204	24.715868041695	610.412650136284	1158.346842929625	92.867907886283	597.320940038842	1263.046013352675	51.994734187909	600.157200085418	
126	19.998571428571	1039.282578767823	977.399247933322	548.335007098047	1033.041691259037	948.599597176742	306.335080039033	1079.504274273113	1431.806437435436	451.900947006976	962.404896025693	1486.519025680503	611.099922129332	953.644402242695	1551.645744170452	427.359348716701	1036.821042031530	1502.763693703822	252.973805430259	1030.835656421383	1180.227302489276	112.416896453873	1161.072642715706	926.319036633862	167.469624190774	872.140191489356	1165.233858958838	741.323884557036	1092.521638473372	984.051158301827	685.179344431628	1015.590150968424	721.106732735419	309.323623238834	925.991487493650	664.549354950696	268.003222943065	979.717632612630	594.735924355977	333.278514221170	945.997731573609	478.385001801742	339.105440371066	878.040468563415	389.268350067697	360.637525475410	798.685904758324	335.651067078041	282.157628292273	819.873344971079	276.144423145247	370.608050323385	644.231338803746	58.331738648187	369.402641046709	732.881275016470	31.407328140220	311.482592860578	830.151898090955	89.264633718785	355.620979620908	935.511632692636	44.181796348133	362.291559790123	1076.711508720989	750.212663264967	577.376921774434	1000.569351525236	665.007818804640	630.696981640228	1088.949492914183	620.572040652119	560.213697786625	1102.496747808979	524.935983521762	595.031088800811	1073.120945804491	422.677004037411	559.217935013189	1002.779953855684	350.147031053423	637.798677991648	1070.212578736876	282.676803055273	562.709055628671	971.193545887030	53.892874174133	532.346573889751	1046.480512053763	24.325435555245	609.198114190832	1151.604851050813	90.840133030037	594.108906519168	1255.950359143791	48.819880886162	597.991855705774	
127	20.014000000000	1038.967673095993	975.797712272189	550.923762475204	1033.129616606143	948.338356051168	309.275253311226	1079.780126924235	1431.373907508890	455.242151856885	963.462880454367	1485.805822011216	615.099838343635	953.488458579996	1551.099876686570	431.270454213417	1035.532578372608	1502.255580690171	256.213642356341	1024.810065386684	1180.417960949284	114.241533332022	1152.356928551033	924.363103980688	165.610056567784	875.829023370018	1163.530235422087	744.904231892857	1096.792745905825	983.521880305916	687.332034564502	1015.013820405316	720.906277050644	311.161717179291	925.317997559410	664.508130410156	269.917780190505	979.450157149185	594.340486575202	334.307103278825	944.903211780975	476.838901789538	339.270111499100	875.743519680633	388.716964289439	360.619770571089	794.811114469624	336.915515082923	282.343866025827	816.006594127993	276.389806832598	370.370190389679	637.640875154729	60.259565976317	368.859050951424	726.134922064369	32.180089516398	311.194183893154	823.871909164061	89.603788998096	354.949503415760	928.450568707938	44.133041937420	362.267926912596	1075.111669338165	748.968086887995	578.759684445774	998.625974760939	663.857220502739	631.934207384634	1086.366144888735	619.300057777409	560.834111168601	1099.321216619014	523.415098362405	594.811867569210	1069.076693283806	421.289228315159	558.814510706787	999.170285696213	348.970647225440	637.784408371527	1065.324746772146	281.346888434839	561.740870276231	964.393336751527	53.105616964539	531.234260128424	1039.435719504422	24.438206798973	608.547247706673	1145.199387555430	89.574202478074	591.742442263854	1249.222155699197	46.573968722210	596.432271549552	
